<svg width="45" height="45" viewBox="0 0 45 45" fill="none" xmlns="http://www.w3.org/2000/svg">
<path d="M45 22.5L37.4791 27.367L40.7029 35.7252L31.7576 35.242L29.4529 43.8988L22.5 38.25L15.5471 43.8988L13.2424 35.242L4.29712 35.7252L7.52086 27.367L-9.83506e-07 22.5L7.52086 17.633L4.29712 9.27483L13.2424 9.75798L15.5471 1.10123L22.5 6.75L29.4529 1.10123L31.7576 9.75798L40.7029 9.27483L37.4791 17.633L45 22.5Z" fill="#FFB800"/>
<g filter="url(#filter0_d_12_204)">
<path d="M26.3828 16.5781L23.5703 28H19.9219L18.8281 23.0234C18.8073 22.9297 18.7734 22.7708 18.7266 22.5469C18.6849 22.3229 18.6354 22.0677 18.5781 21.7812C18.526 21.4948 18.4766 21.2135 18.4297 20.9375C18.388 20.6562 18.3568 20.4193 18.3359 20.2266C18.3151 20.4193 18.2812 20.6562 18.2344 20.9375C18.1875 21.2135 18.1354 21.4948 18.0781 21.7812C18.026 22.0677 17.974 22.3229 17.9219 22.5469C17.875 22.7708 17.8411 22.9297 17.8203 23.0234L16.7188 28H13.0703L10.2422 16.5781H13.2188L14.4609 22.3047C14.4922 22.4453 14.5339 22.6458 14.5859 22.9062C14.6432 23.1615 14.7005 23.4427 14.7578 23.75C14.8203 24.0521 14.8776 24.3438 14.9297 24.625C14.9818 24.9062 15.0182 25.1406 15.0391 25.3281C15.0807 25.0052 15.1354 24.638 15.2031 24.2266C15.276 23.8151 15.3542 23.3984 15.4375 22.9766C15.526 22.5495 15.6094 22.1536 15.6875 21.7891C15.7656 21.4245 15.8333 21.1276 15.8906 20.8984L16.8984 16.5781H19.7578L20.7344 20.8984C20.7865 21.1224 20.8516 21.4193 20.9297 21.7891C21.013 22.1536 21.0964 22.5495 21.1797 22.9766C21.2682 23.4036 21.349 23.8255 21.4219 24.2422C21.4948 24.6536 21.5495 25.0156 21.5859 25.3281C21.6172 25.0677 21.6693 24.7396 21.7422 24.3438C21.8151 23.9427 21.888 23.5547 21.9609 23.1797C22.0391 22.7995 22.099 22.513 22.1406 22.3203L23.4062 16.5781H26.3828ZM27.8594 28V16.5781H30.9453V25.5078H35.3438V28H27.8594Z" fill="white"/>
</g>
<defs>
<filter id="filter0_d_12_204" x="10.2422" y="16.5781" width="27.1016" height="13.4219" filterUnits="userSpaceOnUse" color-interpolation-filters="sRGB">
<feFlood flood-opacity="0" result="BackgroundImageFix"/>
<feColorMatrix in="SourceAlpha" type="matrix" values="0 0 0 0 0 0 0 0 0 0 0 0 0 0 0 0 0 0 127 0" result="hardAlpha"/>
<feOffset dx="1" dy="1"/>
<feGaussianBlur stdDeviation="0.5"/>
<feComposite in2="hardAlpha" operator="out"/>
<feColorMatrix type="matrix" values="0 0 0 0 0 0 0 0 0 0 0 0 0 0 0 0 0 0 0.5 0"/>
<feBlend mode="normal" in2="BackgroundImageFix" result="effect1_dropShadow_12_204"/>
<feBlend mode="normal" in="SourceGraphic" in2="effect1_dropShadow_12_204" result="shape"/>
</filter>
</defs>
</svg>
