<svg width="32" height="32" viewBox="0 0 32 32" fill="none" xmlns="http://www.w3.org/2000/svg">
<path d="M31.189 16.34L26.1258 19.5071L28.1889 25.1117L22.2311 24.6978L20.6059 30.4446L16.0292 26.6079L11.3365 30.3019L9.88902 24.5078L3.92126 24.7381L6.15594 19.1997L1.19258 15.8782L6.25584 12.7111L4.1927 7.10658L10.1505 7.52044L11.7757 1.77361L16.3524 5.61036L21.0451 1.91631L22.4926 7.71045L28.4603 7.48019L26.2257 13.0185L31.189 16.34Z" fill="#FFB800"/>
<g filter="url(#filter0_d_12_204)">
<path d="M18.4149 13.0185L16.5474 20.1293L14.2674 20.0942L13.6318 16.9736C13.6197 16.9149 13.6001 16.8153 13.5729 16.6749C13.549 16.5345 13.5206 16.3745 13.4875 16.195C13.4577 16.0155 13.4295 15.8392 13.4029 15.6663C13.3795 15.4901 13.3623 15.3417 13.3511 15.2211C13.3363 15.3413 13.3128 15.4891 13.2808 15.6644C13.2489 15.8364 13.2136 16.0117 13.1751 16.1902C13.1398 16.3687 13.1048 16.5277 13.0701 16.6671C13.0386 16.8066 13.0159 16.9056 13.002 16.964L12.2657 20.0633L9.98572 20.0282L8.32824 12.8632L10.1884 12.8918L10.9096 16.4825C10.9277 16.5706 10.9518 16.6964 10.9819 16.8596C11.0152 17.0196 11.0483 17.1959 11.0812 17.3885C11.1173 17.5779 11.1503 17.7607 11.1802 17.937C11.21 18.1133 11.2305 18.2601 11.2417 18.3775C11.2709 18.1761 11.3086 17.9471 11.3549 17.6906C11.4044 17.4342 11.4572 17.1746 11.5134 16.9117C11.5728 16.6457 11.6287 16.3991 11.681 16.172C11.7334 15.945 11.7785 15.7601 11.8165 15.6174L12.4879 12.9272L14.2748 12.9547L14.8435 15.664C14.8739 15.8045 14.9117 15.9906 14.957 16.2225C15.0056 16.4511 15.0538 16.6993 15.1018 16.967C15.153 17.2347 15.1994 17.4991 15.241 17.7602C15.2826 18.0181 15.3133 18.2448 15.3331 18.4404C15.3551 18.278 15.3908 18.0734 15.4402 17.8268C15.4896 17.5769 15.5389 17.3351 15.5881 17.1014C15.6406 16.8646 15.6807 16.6861 15.7086 16.5661L16.5548 12.9898L18.4149 13.0185ZM19.2278 20.1705L19.3377 13.0327L21.2662 13.0624L21.1802 18.6428L23.9289 18.6851L23.905 20.2425L19.2278 20.1705Z" fill="white"/>
</g>
<defs>
<filter id="filter0_d_12_204" x="8.21875" y="12.8633" width="17.7959" height="9.37891" filterUnits="userSpaceOnUse" color-interpolation-filters="sRGB">
<feFlood flood-opacity="0" result="BackgroundImageFix"/>
<feColorMatrix in="SourceAlpha" type="matrix" values="0 0 0 0 0 0 0 0 0 0 0 0 0 0 0 0 0 0 127 0" result="hardAlpha"/>
<feOffset dx="1" dy="1"/>
<feGaussianBlur stdDeviation="0.5"/>
<feComposite in2="hardAlpha" operator="out"/>
<feColorMatrix type="matrix" values="0 0 0 0 0 0 0 0 0 0 0 0 0 0 0 0 0 0 0.5 0"/>
<feBlend mode="normal" in2="BackgroundImageFix" result="effect1_dropShadow_12_204"/>
<feBlend mode="normal" in="SourceGraphic" in2="effect1_dropShadow_12_204" result="shape"/>
</filter>
</defs>
</svg>
