<svg width="35" height="31" viewBox="0 0 35 31" fill="none" xmlns="http://www.w3.org/2000/svg">
<path d="M32.9833 15.4412L28.6546 17.9129L27.8742 18.3585L28.2342 19.1818L30.0963 23.4417L24.748 23.1868L23.9684 23.1497L23.743 23.8968L22.3543 28.4994L18.0826 25.4373L17.5 25.0196L16.9174 25.4373L12.6458 28.4994L11.257 23.8968L11.0316 23.1497L10.252 23.1868L4.90372 23.4417L6.76584 19.1818L7.12575 18.3585L6.34542 17.9129L2.0167 15.4412L6.34542 12.9695L7.12575 12.5239L6.76584 11.7005L4.90372 7.44063L10.252 7.69552L11.0316 7.73267L11.257 6.98552L12.6458 2.38296L16.9174 5.4451L17.5 5.86275L18.0826 5.4451L22.3543 2.38296L23.743 6.98552L23.9684 7.73267L24.748 7.69552L30.0963 7.44063L28.2342 11.7005L27.8742 12.5239L28.6546 12.9695L32.9833 15.4412Z" stroke="white" stroke-width="2"/>
<g filter="url(#filter0_d_101_2)">
<path d="M20.668 11.8613L18.8516 19H17.1279L16.1611 15.25C16.1416 15.1784 16.1156 15.0693 16.083 14.9229C16.0505 14.7764 16.0163 14.6169 15.9805 14.4443C15.9447 14.2686 15.9121 14.1042 15.8828 13.9512C15.8568 13.7949 15.8389 13.6712 15.8291 13.5801C15.8193 13.6712 15.7998 13.7933 15.7705 13.9463C15.7445 14.0993 15.7135 14.262 15.6777 14.4346C15.6452 14.6071 15.6126 14.7682 15.5801 14.918C15.5475 15.0677 15.5215 15.1816 15.502 15.2598L14.54 19H12.8213L11 11.8613H12.4893L13.4023 15.7578C13.4284 15.875 13.4577 16.015 13.4902 16.1777C13.526 16.3405 13.5602 16.5114 13.5928 16.6904C13.6286 16.8662 13.6595 17.0371 13.6855 17.2031C13.7148 17.3659 13.736 17.5075 13.749 17.6279C13.7653 17.5042 13.7865 17.361 13.8125 17.1982C13.8385 17.0322 13.8662 16.8646 13.8955 16.6953C13.9281 16.5228 13.9606 16.3633 13.9932 16.2168C14.0257 16.0703 14.055 15.9515 14.0811 15.8604L15.1211 11.8613H16.5518L17.5918 15.8604C17.6146 15.9482 17.6406 16.0671 17.6699 16.2168C17.7025 16.3633 17.735 16.5228 17.7676 16.6953C17.8001 16.8678 17.8294 17.0371 17.8555 17.2031C17.8848 17.3659 17.9059 17.5075 17.9189 17.6279C17.9417 17.4652 17.9727 17.2682 18.0117 17.0371C18.054 16.8027 18.098 16.57 18.1436 16.3389C18.1924 16.1077 18.2347 15.9141 18.2705 15.7578L19.1787 11.8613H20.668ZM21.5664 19V11.8613H23.0801V17.75H25.9756V19H21.5664Z" fill="white"/>
</g>
<defs>
<filter id="filter0_d_101_2" x="11" y="11.8613" width="16.9756" height="9.13867" filterUnits="userSpaceOnUse" color-interpolation-filters="sRGB">
<feFlood flood-opacity="0" result="BackgroundImageFix"/>
<feColorMatrix in="SourceAlpha" type="matrix" values="0 0 0 0 0 0 0 0 0 0 0 0 0 0 0 0 0 0 127 0" result="hardAlpha"/>
<feOffset dx="1" dy="1"/>
<feGaussianBlur stdDeviation="0.5"/>
<feComposite in2="hardAlpha" operator="out"/>
<feColorMatrix type="matrix" values="0 0 0 0 0 0 0 0 0 0 0 0 0 0 0 0 0 0 0.5 0"/>
<feBlend mode="normal" in2="BackgroundImageFix" result="effect1_dropShadow_101_2"/>
<feBlend mode="normal" in="SourceGraphic" in2="effect1_dropShadow_101_2" result="shape"/>
</filter>
</defs>
</svg>
