<?xml version="1.0" encoding="utf-8"?>
<!-- Generator: Adobe Illustrator 25.4.1, SVG Export Plug-In . SVG Version: 6.00 Build 0)  -->
<svg width="40px" height="40px" version="1.1" id="Слой_1" xmlns="http://www.w3.org/2000/svg" xmlns:xlink="http://www.w3.org/1999/xlink" x="0px" y="0px"
	 viewBox="0 0 322 322" style="enable-background:new 0 0 322 322;" xml:space="preserve">
<style type="text/css">
	.st1{fill:#FFFFFF;}
</style>
<path class="st1" d="M271.2,0.2H122.9v198.4h199V51.8C322,23.9,299.2,0.2,271.2,0.2z M77.4,0.2H52.5c-28,0-51.9,22.7-51.9,51.7v24.8
	h76.7V0.2z M0.7,123.1h76.7v76.5H0.7V123.1z M245.3,321.5h24.9c28,0,51.9-22.7,51.9-51.7v-24.7h-76.7L245.3,321.5L245.3,321.5z
	 M122.9,245.1h76.7v76.5h-76.7V245.1z M0.7,245.1v24.8c0,27.9,22.8,51.7,51.9,51.7h24.9v-76.5H0.7z"/>
</svg>
